<?xml version="1.0" encoding="UTF-8" standalone="no"?><!DOCTYPE svg PUBLIC "-//W3C//DTD SVG 1.1//EN" "http://www.w3.org/Graphics/SVG/1.1/DTD/svg11.dtd"><svg width="100%" height="100%" viewBox="0 0 21334 12000" version="1.1" xmlns="http://www.w3.org/2000/svg" xmlns:xlink="http://www.w3.org/1999/xlink" xml:space="preserve" xmlns:serif="http://www.serif.com/" style="fill-rule:evenodd;clip-rule:evenodd;stroke-linejoin:round;stroke-miterlimit:2;"><rect id="rect378" x="0" y="0" width="21333.333" height="12000" style="fill:#3c096c;"/><g transform="matrix(3233.290134,0,0,3233.290134,3921.788511,6328.441329)"><path d="M0.318,-0.736c0.061,-0 0.112,0.01 0.154,0.03c0.042,0.02 0.074,0.049 0.096,0.086c0.022,0.037 0.033,0.081 0.033,0.132c0,0.03 -0.005,0.06 -0.013,0.09c-0.009,0.03 -0.023,0.058 -0.043,0.083c-0.02,0.025 -0.046,0.044 -0.079,0.059c-0.033,0.015 -0.073,0.022 -0.121,0.022l-0.104,0l0,0.233l-0.145,-0l0,-0.736l0.223,0Zm0.025,0.362c0.022,0 0.04,-0.004 0.055,-0.012c0.015,-0.008 0.026,-0.017 0.034,-0.029c0.008,-0.012 0.014,-0.024 0.018,-0.036c0.004,-0.013 0.006,-0.024 0.006,-0.033c0,-0.007 -0.001,-0.017 -0.004,-0.029c-0.002,-0.012 -0.007,-0.025 -0.015,-0.038c-0.007,-0.013 -0.019,-0.023 -0.033,-0.032c-0.015,-0.009 -0.035,-0.013 -0.06,-0.013l-0.104,0l0,0.222l0.103,0Z" style="fill:#fff;fill-rule:nonzero;"/></g><g transform="matrix(3233.290134,0,0,3233.290134,5978.161036,6328.441329)"><path d="M0.647,-0.061c-0.008,0.007 -0.023,0.016 -0.044,0.027c-0.022,0.011 -0.048,0.021 -0.08,0.03c-0.031,0.009 -0.066,0.013 -0.104,0.012c-0.058,-0.001 -0.11,-0.012 -0.155,-0.032c-0.046,-0.02 -0.084,-0.047 -0.116,-0.081c-0.032,-0.034 -0.056,-0.073 -0.072,-0.117c-0.017,-0.044 -0.025,-0.091 -0.025,-0.141c0,-0.056 0.008,-0.107 0.025,-0.154c0.017,-0.047 0.041,-0.087 0.073,-0.121c0.032,-0.034 0.07,-0.06 0.114,-0.079c0.044,-0.019 0.093,-0.028 0.146,-0.028c0.049,-0 0.093,0.007 0.131,0.02c0.038,0.013 0.069,0.028 0.093,0.043l-0.057,0.137c-0.017,-0.013 -0.039,-0.026 -0.067,-0.039c-0.028,-0.014 -0.06,-0.02 -0.096,-0.02c-0.028,0 -0.055,0.006 -0.081,0.017c-0.026,0.012 -0.048,0.028 -0.068,0.049c-0.02,0.021 -0.035,0.046 -0.047,0.075c-0.011,0.028 -0.017,0.059 -0.017,0.093c-0,0.035 0.005,0.068 0.015,0.097c0.01,0.029 0.025,0.055 0.045,0.076c0.019,0.021 0.042,0.037 0.07,0.049c0.027,0.011 0.057,0.017 0.091,0.017c0.039,0 0.073,-0.006 0.101,-0.019c0.028,-0.013 0.049,-0.026 0.064,-0.04l0.06,0.13Z" style="fill:#fff;fill-rule:nonzero;"/></g><g transform="matrix(3233.290134,0,0,3233.290134,8231.76426,6328.441329)"><path d="M0.095,-0.736l0.145,0l0,0.596l0.346,0l0,0.14l-0.491,-0l0,-0.736Z" style="fill:#fff;fill-rule:nonzero;"/></g><g transform="matrix(3233.290134,0,0,3233.290134,10304.303236,6328.441329)"><path d="M0.072,-0.437l0.14,0l0,0.437l-0.14,-0l0,-0.437Zm-0.003,-0.155c0,-0.021 0.008,-0.038 0.024,-0.051c0.016,-0.013 0.034,-0.02 0.052,-0.02c0.019,0 0.036,0.007 0.052,0.02c0.016,0.013 0.023,0.03 0.023,0.051c0,0.021 -0.008,0.037 -0.023,0.05c-0.016,0.013 -0.033,0.019 -0.052,0.019c-0.019,0 -0.036,-0.007 -0.052,-0.019c-0.016,-0.013 -0.024,-0.03 -0.024,-0.05Z" style="fill:#fff;fill-rule:nonzero;"/></g><g transform="matrix(3233.290134,0,0,3233.290134,11222.557634,6328.441329)"><path d="M0.199,-0.437l0.011,0.078l-0.002,-0.007c0.015,-0.027 0.037,-0.05 0.065,-0.067c0.028,-0.017 0.062,-0.026 0.103,-0.026c0.041,0 0.076,0.012 0.104,0.037c0.028,0.024 0.042,0.056 0.042,0.094l0,0.327l-0.14,-0l0,-0.275c-0.001,-0.019 -0.006,-0.035 -0.016,-0.046c-0.01,-0.012 -0.026,-0.018 -0.048,-0.018c-0.021,0 -0.04,0.007 -0.056,0.021c-0.016,0.014 -0.028,0.033 -0.037,0.057c-0.009,0.024 -0.013,0.052 -0.013,0.083l0,0.178l-0.14,-0l0,-0.437l0.127,0Z" style="fill:#fff;fill-rule:nonzero;"/></g><g transform="matrix(3233.290134,0,0,3233.290134,13143.131974,6328.441329)"><path d="M0.072,-0l0,-0.789l0.14,0l0,0.789l-0.14,-0Zm0.251,-0.297l0.198,0.297l-0.163,-0l-0.127,-0.217l0.092,-0.08Zm-0.153,0.176l-0.014,-0.133l0.264,-0.194l0.085,0.075l-0.335,0.252Z" style="fill:#fff;fill-rule:nonzero;"/></g><g transform="matrix(3233.290134,0,0,3233.290134,14908.508387,6328.441329)"></g><g transform="matrix(1094.733927,0,0,1094.733927,2587.244516,8144.465364)"><path d="M0.731,0.024l-0.559,-0.568l0.028,0.007l0.002,0.537l-0.098,-0l0,-0.745l0.004,0l0.553,0.569l-0.022,-0.005l-0.002,-0.542l0.097,0l0,0.746l-0.003,0Z" style="fill:#fff;fill-rule:nonzero;"/></g><g transform="matrix(1094.733927,0,0,1094.733927,3503.536813,8144.465364)"><path d="M0.044,-0.211c0,-0.041 0.01,-0.079 0.029,-0.112c0.02,-0.033 0.047,-0.06 0.082,-0.079c0.035,-0.019 0.074,-0.029 0.119,-0.029c0.045,0 0.084,0.01 0.118,0.029c0.034,0.019 0.06,0.046 0.079,0.079c0.019,0.033 0.028,0.071 0.028,0.112c0,0.042 -0.009,0.079 -0.028,0.112c-0.019,0.034 -0.045,0.06 -0.08,0.08c-0.034,0.02 -0.074,0.029 -0.119,0.029c-0.044,-0 -0.083,-0.009 -0.117,-0.027c-0.034,-0.018 -0.062,-0.044 -0.082,-0.077c-0.02,-0.033 -0.03,-0.072 -0.03,-0.117Zm0.094,0.001c0,0.027 0.006,0.051 0.018,0.072c0.012,0.022 0.028,0.039 0.048,0.051c0.02,0.013 0.043,0.019 0.068,0.019c0.026,0 0.049,-0.006 0.069,-0.019c0.02,-0.013 0.036,-0.03 0.048,-0.051c0.012,-0.022 0.017,-0.046 0.017,-0.073c-0,-0.027 -0.006,-0.051 -0.017,-0.073c-0.011,-0.022 -0.027,-0.039 -0.047,-0.052c-0.02,-0.013 -0.043,-0.019 -0.069,-0.019c-0.025,0 -0.048,0.007 -0.068,0.02c-0.02,0.013 -0.036,0.031 -0.048,0.052c-0.012,0.022 -0.017,0.046 -0.017,0.072Z" style="fill:#fff;fill-rule:nonzero;"/></g><g transform="matrix(1094.733927,0,0,1094.733927,4100.166804,8144.465364)"></g><g transform="matrix(1094.733927,0,0,1094.733927,4446.102725,8144.465364)"><path d="M0.417,-0.038c-0.019,0.015 -0.041,0.027 -0.067,0.035c-0.026,0.009 -0.052,0.013 -0.078,0.013c-0.045,0 -0.085,-0.009 -0.119,-0.027c-0.034,-0.018 -0.061,-0.043 -0.08,-0.076c-0.019,-0.033 -0.029,-0.071 -0.029,-0.115c0,-0.044 0.01,-0.082 0.03,-0.115c0.02,-0.032 0.047,-0.058 0.081,-0.076c0.033,-0.018 0.069,-0.027 0.107,-0.027c0.033,0 0.063,0.005 0.089,0.014c0.026,0.009 0.049,0.022 0.068,0.038l-0.046,0.061c-0.012,-0.009 -0.026,-0.018 -0.044,-0.025c-0.018,-0.008 -0.037,-0.011 -0.059,-0.011c-0.024,0 -0.047,0.006 -0.067,0.019c-0.02,0.012 -0.036,0.029 -0.048,0.05c-0.012,0.021 -0.018,0.045 -0.018,0.072c0,0.026 0.006,0.049 0.018,0.071c0.012,0.022 0.029,0.039 0.05,0.051c0.021,0.013 0.046,0.019 0.073,0.019c0.018,0 0.034,-0.003 0.049,-0.008c0.015,-0.005 0.029,-0.013 0.04,-0.022l0.048,0.059Z" style="fill:#fff;fill-rule:nonzero;"/></g><g transform="matrix(1094.733927,0,0,1094.733927,4945.301396,8144.465364)"><path d="M0.254,0.01c-0.039,0 -0.074,-0.008 -0.106,-0.025c-0.032,-0.017 -0.057,-0.041 -0.075,-0.073c-0.018,-0.032 -0.028,-0.072 -0.028,-0.119c0,-0.046 0.01,-0.086 0.029,-0.12c0.019,-0.034 0.045,-0.059 0.077,-0.077c0.032,-0.018 0.068,-0.027 0.107,-0.027c0.039,0 0.072,0.009 0.098,0.026c0.027,0.017 0.047,0.038 0.061,0.063l-0.006,0.016l0.009,-0.088l0.086,0l0,0.414l-0.093,-0l0,-0.108l0.01,0.024c-0.003,0.007 -0.009,0.015 -0.018,0.026c-0.009,0.01 -0.021,0.021 -0.036,0.032c-0.015,0.011 -0.032,0.02 -0.051,0.027c-0.019,0.007 -0.041,0.011 -0.065,0.011Zm0.025,-0.077c0.023,0 0.044,-0.004 0.062,-0.013c0.019,-0.009 0.034,-0.021 0.046,-0.037c0.012,-0.016 0.021,-0.035 0.026,-0.056l0,-0.081c-0.005,-0.02 -0.015,-0.037 -0.028,-0.052c-0.013,-0.015 -0.029,-0.027 -0.048,-0.035c-0.019,-0.009 -0.039,-0.013 -0.061,-0.013c-0.025,0 -0.047,0.006 -0.068,0.018c-0.021,0.012 -0.037,0.029 -0.05,0.05c-0.012,0.021 -0.018,0.046 -0.018,0.075c0,0.027 0.006,0.051 0.019,0.073c0.013,0.022 0.03,0.039 0.051,0.052c0.021,0.013 0.045,0.019 0.07,0.019Z" style="fill:#fff;fill-rule:nonzero;"/></g><g transform="matrix(1094.733927,0,0,1094.733927,5586.815477,8144.465364)"><path d="M0.334,0.01c-0.038,0 -0.072,-0.008 -0.101,-0.025c-0.029,-0.017 -0.052,-0.038 -0.069,-0.063l0.011,-0.028l0,0.106l-0.094,-0l0,-0.774l0.093,0l0,0.455l-0.003,-0.035c0.016,-0.023 0.04,-0.041 0.071,-0.055c0.031,-0.014 0.066,-0.021 0.104,-0.021c0.037,0 0.071,0.009 0.102,0.027c0.031,0.018 0.055,0.043 0.074,0.076c0.018,0.032 0.027,0.071 0.027,0.115c0,0.047 -0.01,0.087 -0.03,0.12c-0.02,0.033 -0.046,0.059 -0.079,0.077c-0.033,0.018 -0.068,0.027 -0.106,0.027Zm-0.02,-0.08c0.027,0 0.051,-0.006 0.072,-0.019c0.021,-0.013 0.037,-0.03 0.049,-0.052c0.012,-0.022 0.018,-0.047 0.018,-0.074c0,-0.027 -0.006,-0.051 -0.018,-0.072c-0.012,-0.022 -0.029,-0.039 -0.05,-0.051c-0.021,-0.013 -0.045,-0.019 -0.072,-0.019c-0.023,0 -0.044,0.004 -0.063,0.013c-0.019,0.009 -0.036,0.02 -0.049,0.035c-0.013,0.015 -0.023,0.032 -0.028,0.052l0,0.084c0.005,0.02 0.014,0.037 0.027,0.053c0.013,0.015 0.029,0.028 0.048,0.037c0.019,0.009 0.041,0.013 0.065,0.013Z" style="fill:#fff;fill-rule:nonzero;"/></g><g transform="matrix(1094.733927,0,0,1094.733927,6235.992696,8144.465364)"><rect x="0.081" y="-0.774" width="0.094" height="0.774" style="fill:#fff;fill-rule:nonzero;"/></g><g transform="matrix(1094.733927,0,0,1094.733927,6514.055113,8144.465364)"><path d="M0.273,0.01c-0.047,0 -0.088,-0.009 -0.122,-0.028c-0.034,-0.019 -0.06,-0.045 -0.079,-0.078c-0.018,-0.033 -0.028,-0.071 -0.028,-0.113c0,-0.041 0.01,-0.078 0.031,-0.112c0.021,-0.033 0.048,-0.06 0.083,-0.08c0.035,-0.02 0.074,-0.03 0.116,-0.03c0.055,0 0.1,0.016 0.136,0.048c0.036,0.032 0.06,0.076 0.073,0.132l-0.341,0.12l-0.023,-0.055l0.28,-0.102l-0.02,0.013c-0.008,-0.022 -0.022,-0.041 -0.04,-0.057c-0.018,-0.016 -0.043,-0.024 -0.073,-0.024c-0.025,0 -0.048,0.006 -0.068,0.018c-0.02,0.012 -0.035,0.029 -0.047,0.05c-0.011,0.021 -0.017,0.046 -0.017,0.073c0,0.028 0.006,0.053 0.018,0.075c0.012,0.022 0.028,0.039 0.049,0.051c0.021,0.012 0.045,0.018 0.072,0.018c0.018,0 0.036,-0.003 0.053,-0.01c0.017,-0.007 0.033,-0.015 0.047,-0.026l0.043,0.069c-0.021,0.014 -0.044,0.025 -0.07,0.034c-0.026,0.009 -0.051,0.013 -0.076,0.013Z" style="fill:#fff;fill-rule:nonzero;"/></g><g transform="matrix(1094.733927,0,0,1094.733927,7083.316756,8144.465364)"><path d="M0.198,0.009c-0.029,0 -0.058,-0.005 -0.086,-0.016c-0.028,-0.01 -0.051,-0.026 -0.069,-0.047l0.04,-0.054c0.017,0.017 0.035,0.029 0.054,0.037c0.018,0.008 0.036,0.013 0.054,0.013c0.013,0 0.026,-0.002 0.037,-0.005c0.011,-0.003 0.02,-0.009 0.027,-0.017c0.007,-0.008 0.011,-0.018 0.011,-0.031c0,-0.015 -0.005,-0.027 -0.015,-0.035c-0.01,-0.008 -0.022,-0.015 -0.037,-0.021c-0.015,-0.005 -0.031,-0.011 -0.047,-0.015c-0.034,-0.011 -0.061,-0.027 -0.079,-0.047c-0.018,-0.02 -0.027,-0.045 -0.027,-0.074c0,-0.022 0.006,-0.042 0.017,-0.061c0.011,-0.019 0.027,-0.035 0.049,-0.047c0.022,-0.012 0.049,-0.018 0.08,-0.018c0.029,0 0.054,0.004 0.077,0.011c0.023,0.007 0.044,0.019 0.064,0.035l-0.037,0.057c-0.012,-0.012 -0.026,-0.022 -0.042,-0.028c-0.017,-0.006 -0.032,-0.01 -0.045,-0.01c-0.012,-0 -0.023,0.002 -0.033,0.006c-0.01,0.004 -0.019,0.01 -0.025,0.017c-0.007,0.007 -0.01,0.016 -0.01,0.026c-0,0.014 0.004,0.025 0.014,0.034c0.009,0.009 0.022,0.015 0.037,0.02c0.015,0.005 0.03,0.01 0.045,0.016c0.02,0.006 0.039,0.014 0.055,0.024c0.016,0.01 0.029,0.022 0.039,0.037c0.01,0.015 0.014,0.033 0.014,0.055c0,0.025 -0.006,0.048 -0.018,0.069c-0.012,0.021 -0.03,0.038 -0.053,0.05c-0.024,0.013 -0.054,0.019 -0.09,0.019Z" style="fill:#fff;fill-rule:nonzero;"/></g><g transform="matrix(1094.733927,0,0,1094.733927,7528.873464,8144.465364)"><path d="M0.034,-0.053c0,-0.015 0.005,-0.028 0.016,-0.038c0.011,-0.01 0.023,-0.015 0.036,-0.015c0.013,0 0.024,0.005 0.035,0.015c0.011,0.01 0.017,0.023 0.017,0.038c0,0.016 -0.006,0.029 -0.017,0.038c-0.011,0.01 -0.023,0.014 -0.035,0.014c-0.013,-0 -0.025,-0.005 -0.036,-0.015c-0.011,-0.01 -0.016,-0.022 -0.016,-0.038Z" style="fill:#fff;fill-rule:nonzero;"/></g><g transform="matrix(1094.733927,0,0,1094.733927,7712.788764,8144.465364)"></g><g transform="matrix(1094.733927,0,0,1094.733927,8058.724685,8144.465364)"><path d="M0.731,0.024l-0.559,-0.568l0.028,0.007l0.002,0.537l-0.098,-0l0,-0.745l0.004,0l0.553,0.569l-0.022,-0.005l-0.002,-0.542l0.097,0l0,0.746l-0.003,0Z" style="fill:#fff;fill-rule:nonzero;"/></g><g transform="matrix(1094.733927,0,0,1094.733927,8975.016982,8144.465364)"><path d="M0.044,-0.211c0,-0.041 0.01,-0.079 0.029,-0.112c0.02,-0.033 0.047,-0.06 0.082,-0.079c0.035,-0.019 0.074,-0.029 0.119,-0.029c0.045,0 0.084,0.01 0.118,0.029c0.034,0.019 0.06,0.046 0.079,0.079c0.019,0.033 0.028,0.071 0.028,0.112c0,0.042 -0.009,0.079 -0.028,0.112c-0.019,0.034 -0.045,0.06 -0.08,0.08c-0.034,0.02 -0.074,0.029 -0.119,0.029c-0.044,-0 -0.083,-0.009 -0.117,-0.027c-0.034,-0.018 -0.062,-0.044 -0.082,-0.077c-0.02,-0.033 -0.03,-0.072 -0.03,-0.117Zm0.094,0.001c0,0.027 0.006,0.051 0.018,0.072c0.012,0.022 0.028,0.039 0.048,0.051c0.02,0.013 0.043,0.019 0.068,0.019c0.026,0 0.049,-0.006 0.069,-0.019c0.02,-0.013 0.036,-0.03 0.048,-0.051c0.012,-0.022 0.017,-0.046 0.017,-0.073c-0,-0.027 -0.006,-0.051 -0.017,-0.073c-0.011,-0.022 -0.027,-0.039 -0.047,-0.052c-0.02,-0.013 -0.043,-0.019 -0.069,-0.019c-0.025,0 -0.048,0.007 -0.068,0.02c-0.02,0.013 -0.036,0.031 -0.048,0.052c-0.012,0.022 -0.017,0.046 -0.017,0.072Z" style="fill:#fff;fill-rule:nonzero;"/></g><g transform="matrix(1094.733927,0,0,1094.733927,9571.646972,8144.465364)"></g><g transform="matrix(1094.733927,0,0,1094.733927,9917.582893,8144.465364)"><rect x="0.081" y="-0.774" width="0.094" height="0.774" style="fill:#fff;fill-rule:nonzero;"/></g><g transform="matrix(1094.733927,0,0,1094.733927,10195.645311,8144.465364)"><path d="M0.081,-0.414l0.094,0l0,0.414l-0.094,-0l0,-0.414Zm-0.007,-0.15c0,-0.015 0.006,-0.027 0.018,-0.037c0.012,-0.01 0.025,-0.015 0.038,-0.015c0.014,0 0.027,0.005 0.038,0.015c0.011,0.01 0.017,0.022 0.017,0.037c0,0.015 -0.006,0.028 -0.017,0.038c-0.011,0.01 -0.024,0.014 -0.038,0.014c-0.014,0 -0.026,-0.005 -0.038,-0.015c-0.012,-0.01 -0.018,-0.022 -0.018,-0.037Z" style="fill:#fff;fill-rule:nonzero;"/></g><g transform="matrix(1094.733927,0,0,1094.733927,10473.707728,8144.465364)"><path d="M0.165,-0.414l0.008,0.093l-0.005,-0.008c0.015,-0.032 0.037,-0.056 0.066,-0.075c0.029,-0.018 0.061,-0.027 0.098,-0.027c0.023,-0 0.043,0.004 0.061,0.011c0.018,0.007 0.033,0.018 0.045,0.032c0.012,0.014 0.019,0.03 0.023,0.05l-0.006,0.004c0.016,-0.03 0.039,-0.054 0.067,-0.071c0.028,-0.017 0.058,-0.026 0.09,-0.025c0.04,-0 0.072,0.011 0.096,0.034c0.024,0.023 0.036,0.053 0.037,0.09l0,0.306l-0.093,-0l0,-0.273c-0.001,-0.021 -0.006,-0.039 -0.015,-0.053c-0.01,-0.014 -0.026,-0.022 -0.05,-0.024c-0.024,-0 -0.046,0.007 -0.065,0.022c-0.019,0.015 -0.034,0.033 -0.044,0.056c-0.011,0.023 -0.016,0.048 -0.017,0.075l0,0.197l-0.094,-0l0,-0.273c-0.001,-0.021 -0.006,-0.039 -0.016,-0.053c-0.01,-0.014 -0.028,-0.022 -0.052,-0.024c-0.024,-0 -0.046,0.007 -0.064,0.022c-0.019,0.015 -0.033,0.034 -0.044,0.057c-0.01,0.023 -0.016,0.049 -0.016,0.075l0,0.196l-0.094,-0l0,-0.414l0.084,0Z" style="fill:#fff;fill-rule:nonzero;"/></g><g transform="matrix(1094.733927,0,0,1094.733927,11376.863218,8144.465364)"><path d="M0.081,-0.414l0.094,0l0,0.414l-0.094,-0l0,-0.414Zm-0.007,-0.15c0,-0.015 0.006,-0.027 0.018,-0.037c0.012,-0.01 0.025,-0.015 0.038,-0.015c0.014,0 0.027,0.005 0.038,0.015c0.011,0.01 0.017,0.022 0.017,0.037c0,0.015 -0.006,0.028 -0.017,0.038c-0.011,0.01 -0.024,0.014 -0.038,0.014c-0.014,0 -0.026,-0.005 -0.038,-0.015c-0.012,-0.01 -0.018,-0.022 -0.018,-0.037Z" style="fill:#fff;fill-rule:nonzero;"/></g><g transform="matrix(1094.733927,0,0,1094.733927,11654.925636,8144.465364)"><path d="M0.12,-0.596l0.094,0l0,0.183l0.114,0l0,0.074l-0.114,0l0,0.339l-0.094,-0l0,-0.339l-0.075,0l0,-0.074l0.075,0l0,-0.183Z" style="fill:#fff;fill-rule:nonzero;"/></g><g transform="matrix(1094.733927,0,0,1094.733927,12047.935116,8144.465364)"><path d="M0.198,0.009c-0.029,0 -0.058,-0.005 -0.086,-0.016c-0.028,-0.01 -0.051,-0.026 -0.069,-0.047l0.04,-0.054c0.017,0.017 0.035,0.029 0.054,0.037c0.018,0.008 0.036,0.013 0.054,0.013c0.013,0 0.026,-0.002 0.037,-0.005c0.011,-0.003 0.02,-0.009 0.027,-0.017c0.007,-0.008 0.011,-0.018 0.011,-0.031c0,-0.015 -0.005,-0.027 -0.015,-0.035c-0.01,-0.008 -0.022,-0.015 -0.037,-0.021c-0.015,-0.005 -0.031,-0.011 -0.047,-0.015c-0.034,-0.011 -0.061,-0.027 -0.079,-0.047c-0.018,-0.02 -0.027,-0.045 -0.027,-0.074c0,-0.022 0.006,-0.042 0.017,-0.061c0.011,-0.019 0.027,-0.035 0.049,-0.047c0.022,-0.012 0.049,-0.018 0.08,-0.018c0.029,0 0.054,0.004 0.077,0.011c0.023,0.007 0.044,0.019 0.064,0.035l-0.037,0.057c-0.012,-0.012 -0.026,-0.022 -0.042,-0.028c-0.017,-0.006 -0.032,-0.01 -0.045,-0.01c-0.012,-0 -0.023,0.002 -0.033,0.006c-0.01,0.004 -0.019,0.01 -0.025,0.017c-0.007,0.007 -0.01,0.016 -0.01,0.026c-0,0.014 0.004,0.025 0.014,0.034c0.009,0.009 0.022,0.015 0.037,0.02c0.015,0.005 0.03,0.01 0.045,0.016c0.02,0.006 0.039,0.014 0.055,0.024c0.016,0.01 0.029,0.022 0.039,0.037c0.01,0.015 0.014,0.033 0.014,0.055c0,0.025 -0.006,0.048 -0.018,0.069c-0.012,0.021 -0.03,0.038 -0.053,0.05c-0.024,0.013 -0.054,0.019 -0.09,0.019Z" style="fill:#fff;fill-rule:nonzero;"/></g><g transform="matrix(1094.733927,0,0,1094.733927,12493.491824,8144.465364)"><path d="M0.034,-0.053c0,-0.015 0.005,-0.028 0.016,-0.038c0.011,-0.01 0.023,-0.015 0.036,-0.015c0.013,0 0.024,0.005 0.035,0.015c0.011,0.01 0.017,0.023 0.017,0.038c0,0.016 -0.006,0.029 -0.017,0.038c-0.011,0.01 -0.023,0.014 -0.035,0.014c-0.013,-0 -0.025,-0.005 -0.036,-0.015c-0.011,-0.01 -0.016,-0.022 -0.016,-0.038Z" style="fill:#fff;fill-rule:nonzero;"/></g><g transform="matrix(1094.733927,0,0,1094.733927,12677.407124,8144.465364)"></g><g transform="matrix(1094.733927,0,0,1094.733927,13023.343045,8144.465364)"><path d="M0.261,-0.131c0,0.058 -0.011,0.108 -0.034,0.149c-0.022,0.041 -0.053,0.073 -0.091,0.095c-0.039,0.022 -0.083,0.034 -0.133,0.035l-0,-0.094c0.047,-0.003 0.085,-0.019 0.115,-0.049c0.03,-0.03 0.045,-0.077 0.045,-0.14l0,-0.589l0.098,0l0,0.592Z" style="fill:#fff;fill-rule:nonzero;"/></g><g transform="matrix(1094.733927,0,0,1094.733927,13422.920928,8144.465364)"><path d="M0.212,0.016c-0.038,0 -0.069,-0.011 -0.093,-0.035c-0.024,-0.023 -0.037,-0.053 -0.039,-0.089l0,-0.306l0.094,0l0,0.273c0.001,0.022 0.008,0.041 0.02,0.055c0.012,0.014 0.03,0.022 0.056,0.022c0.023,0 0.044,-0.007 0.062,-0.021c0.018,-0.014 0.033,-0.032 0.044,-0.056c0.011,-0.024 0.017,-0.05 0.017,-0.08l0,-0.193l0.094,0l0,0.414l-0.085,-0l-0.008,-0.102l0.005,0.018c-0.008,0.019 -0.021,0.036 -0.037,0.051c-0.016,0.015 -0.035,0.027 -0.057,0.036c-0.022,0.008 -0.046,0.013 -0.072,0.013Z" style="fill:#fff;fill-rule:nonzero;"/></g><g transform="matrix(1094.733927,0,0,1094.733927,14020.645653,8144.465364)"><path d="M0.198,0.009c-0.029,0 -0.058,-0.005 -0.086,-0.016c-0.028,-0.01 -0.051,-0.026 -0.069,-0.047l0.04,-0.054c0.017,0.017 0.035,0.029 0.054,0.037c0.018,0.008 0.036,0.013 0.054,0.013c0.013,0 0.026,-0.002 0.037,-0.005c0.011,-0.003 0.02,-0.009 0.027,-0.017c0.007,-0.008 0.011,-0.018 0.011,-0.031c0,-0.015 -0.005,-0.027 -0.015,-0.035c-0.01,-0.008 -0.022,-0.015 -0.037,-0.021c-0.015,-0.005 -0.031,-0.011 -0.047,-0.015c-0.034,-0.011 -0.061,-0.027 -0.079,-0.047c-0.018,-0.02 -0.027,-0.045 -0.027,-0.074c0,-0.022 0.006,-0.042 0.017,-0.061c0.011,-0.019 0.027,-0.035 0.049,-0.047c0.022,-0.012 0.049,-0.018 0.08,-0.018c0.029,0 0.054,0.004 0.077,0.011c0.023,0.007 0.044,0.019 0.064,0.035l-0.037,0.057c-0.012,-0.012 -0.026,-0.022 -0.042,-0.028c-0.017,-0.006 -0.032,-0.01 -0.045,-0.01c-0.012,-0 -0.023,0.002 -0.033,0.006c-0.01,0.004 -0.019,0.01 -0.025,0.017c-0.007,0.007 -0.01,0.016 -0.01,0.026c-0,0.014 0.004,0.025 0.014,0.034c0.009,0.009 0.022,0.015 0.037,0.02c0.015,0.005 0.03,0.01 0.045,0.016c0.02,0.006 0.039,0.014 0.055,0.024c0.016,0.01 0.029,0.022 0.039,0.037c0.01,0.015 0.014,0.033 0.014,0.055c0,0.025 -0.006,0.048 -0.018,0.069c-0.012,0.021 -0.03,0.038 -0.053,0.05c-0.024,0.013 -0.054,0.019 -0.09,0.019Z" style="fill:#fff;fill-rule:nonzero;"/></g><g transform="matrix(1094.733927,0,0,1094.733927,14466.202361,8144.465364)"><path d="M0.12,-0.596l0.094,0l0,0.183l0.114,0l0,0.074l-0.114,0l0,0.339l-0.094,-0l0,-0.339l-0.075,0l0,-0.074l0.075,0l0,-0.183Z" style="fill:#fff;fill-rule:nonzero;"/></g><g transform="matrix(1094.733927,0,0,1094.733927,14859.211841,8144.465364)"></g><g transform="matrix(1094.733927,0,0,1094.733927,15205.147762,8144.465364)"><path d="M0.417,-0.038c-0.019,0.015 -0.041,0.027 -0.067,0.035c-0.026,0.009 -0.052,0.013 -0.078,0.013c-0.045,0 -0.085,-0.009 -0.119,-0.027c-0.034,-0.018 -0.061,-0.043 -0.08,-0.076c-0.019,-0.033 -0.029,-0.071 -0.029,-0.115c0,-0.044 0.01,-0.082 0.03,-0.115c0.02,-0.032 0.047,-0.058 0.081,-0.076c0.033,-0.018 0.069,-0.027 0.107,-0.027c0.033,0 0.063,0.005 0.089,0.014c0.026,0.009 0.049,0.022 0.068,0.038l-0.046,0.061c-0.012,-0.009 -0.026,-0.018 -0.044,-0.025c-0.018,-0.008 -0.037,-0.011 -0.059,-0.011c-0.024,0 -0.047,0.006 -0.067,0.019c-0.02,0.012 -0.036,0.029 -0.048,0.05c-0.012,0.021 -0.018,0.045 -0.018,0.072c0,0.026 0.006,0.049 0.018,0.071c0.012,0.022 0.029,0.039 0.05,0.051c0.021,0.013 0.046,0.019 0.073,0.019c0.018,0 0.034,-0.003 0.049,-0.008c0.015,-0.005 0.029,-0.013 0.04,-0.022l0.048,0.059Z" style="fill:#fff;fill-rule:nonzero;"/></g><g transform="matrix(1094.733927,0,0,1094.733927,15704.346433,8144.465364)"><path d="M0.044,-0.211c0,-0.041 0.01,-0.079 0.029,-0.112c0.02,-0.033 0.047,-0.06 0.082,-0.079c0.035,-0.019 0.074,-0.029 0.119,-0.029c0.045,0 0.084,0.01 0.118,0.029c0.034,0.019 0.06,0.046 0.079,0.079c0.019,0.033 0.028,0.071 0.028,0.112c0,0.042 -0.009,0.079 -0.028,0.112c-0.019,0.034 -0.045,0.06 -0.08,0.08c-0.034,0.02 -0.074,0.029 -0.119,0.029c-0.044,-0 -0.083,-0.009 -0.117,-0.027c-0.034,-0.018 -0.062,-0.044 -0.082,-0.077c-0.02,-0.033 -0.03,-0.072 -0.03,-0.117Zm0.094,0.001c0,0.027 0.006,0.051 0.018,0.072c0.012,0.022 0.028,0.039 0.048,0.051c0.02,0.013 0.043,0.019 0.068,0.019c0.026,0 0.049,-0.006 0.069,-0.019c0.02,-0.013 0.036,-0.03 0.048,-0.051c0.012,-0.022 0.017,-0.046 0.017,-0.073c-0,-0.027 -0.006,-0.051 -0.017,-0.073c-0.011,-0.022 -0.027,-0.039 -0.047,-0.052c-0.02,-0.013 -0.043,-0.019 -0.069,-0.019c-0.025,0 -0.048,0.007 -0.068,0.02c-0.02,0.013 -0.036,0.031 -0.048,0.052c-0.012,0.022 -0.017,0.046 -0.017,0.072Z" style="fill:#fff;fill-rule:nonzero;"/></g><g transform="matrix(1094.733927,0,0,1094.733927,16300.976423,8144.465364)"><path d="M0.165,-0.414l0.008,0.101l-0.004,-0.016c0.013,-0.031 0.035,-0.055 0.065,-0.074c0.03,-0.018 0.065,-0.027 0.104,-0.027c0.039,0 0.071,0.011 0.096,0.034c0.025,0.023 0.038,0.053 0.039,0.09l0,0.306l-0.094,-0l0,-0.274c-0.001,-0.022 -0.007,-0.041 -0.02,-0.055c-0.013,-0.014 -0.032,-0.021 -0.058,-0.022c-0.024,0 -0.045,0.007 -0.064,0.02c-0.019,0.013 -0.035,0.032 -0.046,0.055c-0.011,0.023 -0.017,0.05 -0.017,0.081l0,0.194l-0.094,-0l0,-0.414l0.084,0Z" style="fill:#fff;fill-rule:nonzero;"/></g><g transform="matrix(1094.733927,0,0,1094.733927,16906.364285,8144.465364)"><path d="M0.12,-0.596l0.094,0l0,0.183l0.114,0l0,0.074l-0.114,0l0,0.339l-0.094,-0l0,-0.339l-0.075,0l0,-0.074l0.075,0l0,-0.183Z" style="fill:#fff;fill-rule:nonzero;"/></g><g transform="matrix(1094.733927,0,0,1094.733927,17299.373765,8144.465364)"><path d="M0.164,-0.414l0.009,0.12l-0.005,-0.017c0.011,-0.025 0.026,-0.046 0.046,-0.064c0.02,-0.018 0.042,-0.032 0.064,-0.041c0.022,-0.01 0.042,-0.015 0.058,-0.014l-0.005,0.093c-0.031,-0.002 -0.059,0.004 -0.083,0.018c-0.024,0.014 -0.042,0.033 -0.056,0.056c-0.013,0.023 -0.02,0.048 -0.02,0.075l0,0.189l-0.093,-0l0,-0.414l0.084,0Z" style="fill:#fff;fill-rule:nonzero;"/></g><g transform="matrix(1094.733927,0,0,1094.733927,17691.288511,8144.465364)"><path d="M0.044,-0.211c0,-0.041 0.01,-0.079 0.029,-0.112c0.02,-0.033 0.047,-0.06 0.082,-0.079c0.035,-0.019 0.074,-0.029 0.119,-0.029c0.045,0 0.084,0.01 0.118,0.029c0.034,0.019 0.06,0.046 0.079,0.079c0.019,0.033 0.028,0.071 0.028,0.112c0,0.042 -0.009,0.079 -0.028,0.112c-0.019,0.034 -0.045,0.06 -0.08,0.08c-0.034,0.02 -0.074,0.029 -0.119,0.029c-0.044,-0 -0.083,-0.009 -0.117,-0.027c-0.034,-0.018 -0.062,-0.044 -0.082,-0.077c-0.02,-0.033 -0.03,-0.072 -0.03,-0.117Zm0.094,0.001c0,0.027 0.006,0.051 0.018,0.072c0.012,0.022 0.028,0.039 0.048,0.051c0.02,0.013 0.043,0.019 0.068,0.019c0.026,0 0.049,-0.006 0.069,-0.019c0.02,-0.013 0.036,-0.03 0.048,-0.051c0.012,-0.022 0.017,-0.046 0.017,-0.073c-0,-0.027 -0.006,-0.051 -0.017,-0.073c-0.011,-0.022 -0.027,-0.039 -0.047,-0.052c-0.02,-0.013 -0.043,-0.019 -0.069,-0.019c-0.025,0 -0.048,0.007 -0.068,0.02c-0.02,0.013 -0.036,0.031 -0.048,0.052c-0.012,0.022 -0.017,0.046 -0.017,0.072Z" style="fill:#fff;fill-rule:nonzero;"/></g><g transform="matrix(1094.733927,0,0,1094.733927,18287.918501,8144.465364)"><rect x="0.081" y="-0.774" width="0.094" height="0.774" style="fill:#fff;fill-rule:nonzero;"/></g><g transform="matrix(1094.733927,0,0,1094.733927,18565.980918,8144.465364)"><path d="M0.034,-0.053c0,-0.015 0.005,-0.028 0.016,-0.038c0.011,-0.01 0.023,-0.015 0.036,-0.015c0.013,0 0.024,0.005 0.035,0.015c0.011,0.01 0.017,0.023 0.017,0.038c0,0.016 -0.006,0.029 -0.017,0.038c-0.011,0.01 -0.023,0.014 -0.035,0.014c-0.013,-0 -0.025,-0.005 -0.036,-0.015c-0.011,-0.01 -0.016,-0.022 -0.016,-0.038Z" style="fill:#fff;fill-rule:nonzero;"/></g><g transform="matrix(1094.733927,0,0,1094.733927,18749.896218,8144.465364)"></g><path id="path1" d="M15133.266,6349.252c-40.4,0 -74.265,-13.665 -101.594,-40.994c-27.329,-27.329 -40.994,-61.194 -40.994,-101.594c0,-40.4 13.665,-74.265 40.994,-101.594c27.329,-27.329 61.194,-40.994 101.594,-40.994l2851.767,0c40.4,0 74.265,13.665 101.594,40.994c27.329,27.329 40.994,61.194 40.994,101.594c0,40.4 -13.665,74.265 -40.994,101.594c-27.329,27.329 -61.194,40.994 -101.594,40.994l-2851.767,0Zm285.177,-427.765c-78.424,0 -145.559,-27.924 -201.406,-83.771c-55.847,-55.847 -83.771,-122.982 -83.771,-201.406l0,-1568.472c0,-78.424 27.924,-145.559 83.771,-201.406c55.847,-55.847 122.982,-83.771 201.406,-83.771l2281.414,0c78.424,0 145.559,27.924 201.406,83.771c55.847,55.847 83.771,122.982 83.771,201.406l0,1568.472c0,78.424 -27.924,145.559 -83.771,201.406c-55.847,55.847 -122.982,83.771 -201.406,83.771l-2281.414,0Zm0,-285.177l2281.414,0l0,-1568.472l-2281.414,0l0,1568.472Zm0,0l0,-1568.472l0,1568.472Zm914.099,-47.73c24.396,0 44.845,-8.61 61.348,-25.831c16.503,-17.221 23.319,-38.029 20.449,-62.425c-21.526,-228.172 -113.727,-423.339 -276.605,-585.499c-162.878,-162.16 -359.12,-252.568 -588.728,-271.224c-21.526,-2.87 -39.823,4.305 -54.891,21.526c-15.068,17.221 -22.602,38.029 -22.602,62.425c0,22.961 6.816,43.051 20.449,60.272c13.633,17.221 31.93,27.266 54.891,30.136c183.686,18.656 340.465,92.202 470.336,220.638c129.872,128.437 204.853,283.78 224.943,466.031c2.87,24.396 12.557,44.486 29.06,60.272c16.503,15.785 36.952,23.678 61.348,23.678Zm-344.411,0c24.396,0 44.486,-7.893 60.272,-23.678c15.785,-15.785 22.243,-35.159 19.373,-58.119c-18.656,-134.894 -76.057,-250.416 -172.206,-346.564c-96.148,-96.148 -211.669,-152.832 -346.564,-170.053c-21.526,-2.87 -39.823,3.946 -54.891,20.449c-15.068,16.503 -22.602,36.952 -22.602,61.348c0,22.961 6.099,43.41 18.297,61.348c12.198,17.938 29.06,28.342 50.585,31.212c90.408,15.785 168.259,55.249 233.554,118.391c65.295,63.142 105.835,139.917 121.62,230.325c4.305,22.961 15.068,41.258 32.289,54.891c17.221,13.633 37.311,20.449 60.272,20.449Zm-516.617,-107.628c0,30.136 10.404,55.608 31.212,76.416c20.808,20.808 46.28,31.212 76.416,31.212c30.136,0 55.608,-10.404 76.416,-31.212c20.808,-20.808 31.212,-46.28 31.212,-76.416c0,-30.136 -10.404,-55.608 -31.212,-76.416c-20.808,-20.808 -46.28,-31.212 -76.416,-31.212c-30.136,0 -55.608,10.404 -76.416,31.212c-20.808,20.808 -31.212,46.28 -31.212,76.416Z" style="fill:#fff;fill-rule:nonzero;"/></svg>